<?xml version="1.0" encoding="UTF-8"?>
<svg id="Layer_1" data-name="Layer 1" xmlns="http://www.w3.org/2000/svg" viewBox="0 0 725.25 214.12">
  <defs>
    
  </defs>
  <g id="WWbqTZ.tif">
    <g>
      <path class="cls-1" d="M617.07,171.71c-10.7.02-19.05,9.36-19.46,19.55-.24,5.96-1.61,10.99-5.67,15.53-3.64,4.07-8.87,6.73-14.41,7.25-12.25.94-22.41-7.68-23.8-19.64-.07-.62-.07-1.26-.07-1.89-.03-12.31-10.15-21.97-22.82-20.78-9.91,1-18.18,9.17-18.32,19.47-.17,12.06-8.49,21.98-20.63,22.86s-22.66-7.99-23.21-20.24l-.38-45.58c-.09-10.62-9.46-19.18-20.16-19.18h-85.91c-10.88,0-19.66,8.74-20.14,19.56l-.35,45.28c-.09,11.67-10.77,20.37-21.95,20.2-11.22-.12-20.32-8.5-21.59-19.72-.07-.62-.07-1.24-.07-1.86-.01-11.35-8.74-20.7-20.44-20.9l-43.58-.16c-12.78-.05-21.18-10.76-21.39-22.96-.19-10.83-9.39-19.43-20.09-19.43h-43.46c-10.59,0-18.68,8.12-20.03,18.33-.09.66-.09,1.34-.09,2.01-.07,11.49-8.31,20.7-19.76,22.1-.62.08-1.24.1-1.86.09l-86.47-.15c-10.86-.02-20.76-9.38-20.77-20.42L0,20.99c0-.78.03-1.55.16-2.32C1.94,7.83,11.11-.13,22.11.02c10.96.02,21.49,8.76,21.53,20.47l.34,87.4c.04,11.24,9.71,19.72,20.54,19.73,10.83,0,20.23-8.49,20.46-19.79s8.17-21.92,20.33-22.5l45.54-.39c11.77-.56,19.4-10.11,19.61-21.44.2-10.75,9.18-20.78,20.39-20.8l129.24-.25c10.69-.01,19.02-7.8,20.46-18.21.1-.69.1-1.39.1-2.09.08-11.61,8.58-21.14,20.27-22.08,11.71-.98,22.8,7.8,23.41,20.11l.39,45.67c.09,10.1,8.84,19.07,19.19,19.06h45.31c10.25,0,17.75-8.47,19.11-18.09.1-.71.1-1.44.11-2.16.09-11.37,8.17-20.55,19.55-22.01.62-.08,1.26-.1,1.89-.1l85.77-.06c10.68-.11,18.93-7.74,20.45-18.13.11-.77.11-1.56.12-2.34.05-12.16,9.73-22,21.83-22.01,12.91-.1,22.09,10.27,22.28,23.05.16,11.01,9.75,19.41,20.43,19.44l43.52.14c10.99.04,20.79,9.34,20.81,20.55l.17,87.24c0,.66-.02,1.32-.11,1.98-1.41,10.3-9.61,18.15-20.02,19.09-.46.04-.92.05-1.38.05l-86.67.16ZM278.04,127.6c11.56,0,20.08-9.83,20-20.8s-8.79-20.3-20.06-20.31h-43.65c-10.9,0-19.31,8.62-20.05,19.32-.8,11.51,8.41,21.82,20.17,21.81l43.59-.03ZM531.21,127.56c.52.05,1.04.06,1.56.05h1.25c9.95-.52,17.82-7.94,19.32-17.4s-4.25-19.3-13.45-22.54-19.68.35-24.67,8.96c-3.79,6.55-3.89,14.16,0,20.9,3.14,5.45,9.1,9.38,15.98,10.03ZM659.04,86.55c-11.67.94-19.82,11.23-18.81,22.44,1.01,11.2,10.96,19.42,22.09,18.57s19.83-10.78,18.98-22.12-10.64-19.82-22.26-18.89Z"></path>
      <path class="cls-1" d="M105.77,43.79c-11.05-.71-19.43-9.09-20.48-19.81C83.96,10.35,95.17-1,108.9.08c12.09.95,20.88,11.5,20.03,23.45s-10.96,21.04-23.16,20.26Z"></path>
    </g>
  </g>
</svg>